:FULLY-SPECIFIED
:FORCE-ALL-JOINTS-BE-3DOF
:DEGREES
211
root 8.3886 16.5408 -7.78733 7.6832 0.772222 -4.10788
lfemur -42.4351 2.16622 -16.7334
ltibia 26.5448 0 0
lfoot -14.0961 10.7196 0
ltoes -14.9904 0 0
rfemur 3.19707 4.4124 29.2014
rtibia 14.1284 0 0
rfoot -14.5873 4.62679 0
rtoes -10.0028 0 0
lowerback -6.1411 2.02457 1.84567
upperback -0.97099 2.48596 3.22131
thorax 2.37507 1.24975 2.48775
lowerneck -16.6691 -6.57503 -14.4106
upperneck 15.1363 -8.33344 14.9975
head 8.74681 -3.38887 6.45797
lclavicle 2.05789e-14 2.1139e-15 0
lhumerus -49.072 -9.5222 95.1078
lradius 26.6614 0 0
lwrist 7.1626 0 0
lhand -11.562 -23.804 0
lfingers 7.12502 0 0
lthumb 14.4786 5.66443 0
rclavicle 2.05789e-14 2.1139e-15 0
rhumerus -37.0655 10.7441 -81.7167
rradius 50.8471 0 0
rwrist -26.4346 0 0
rhand -32.7025 -28.2537 0
rfingers 7.12502 0 0
rthumb -5.92682 -58.147 0
212
root 8.41546 16.5357 -7.6238 7.74095 0.588148 -4.04377
lfemur -42.4612 2.37148 -16.9329
ltibia 26.9769 0 0
lfoot -13.929 10.5695 0
ltoes -14.5925 0 0
rfemur 3.3917 4.3279 28.939
rtibia 14.5914 0 0
rfoot -13.9165 4.63391 0
rtoes -10.1521 0 0
lowerback -6.14789 2.02538 1.77562
upperback -1.02929 2.49341 3.18036
thorax 2.31731 1.25384 2.48398
lowerneck -16.7193 -6.55494 -14.3978
upperneck 15.2013 -8.30688 14.9861
head 8.77257 -3.37452 6.45729
lclavicle 1.94667e-14 1.90057e-15 0
lhumerus -48.98 -9.39001 94.9167
lradius 26.4751 0 0
lwrist 6.7608 0 0
lhand -11.4454 -23.7697 0
lfingers 7.12502 0 0
lthumb 14.5909 5.68954 0
rclavicle 1.94667e-14 1.90057e-15 0
rhumerus -37.3362 10.6746 -81.8579
rradius 50.5614 0 0
rwrist -26.3095 0 0
rhand -32.6038 -28.0946 0
rfingers 7.12502 0 0
rthumb -5.83158 -57.9899 0
213
root 8.44232 16.5307 -7.46027 7.79871 0.404074 -3.97966
lfemur -42.4873 2.57673 -17.1324
ltibia 27.409 0 0
lfoot -13.7619 10.4193 0
ltoes -14.1946 0 0
rfemur 3.58633 4.24339 28.6765
rtibia 15.0543 0 0
rfoot -13.2457 4.64103 0
rtoes -10.3013 0 0
lowerback -6.15467 2.02619 1.70558
upperback -1.08758 2.50085 3.1394
thorax 2.25955 1.25792 2.4802
lowerneck -16.7694 -6.53484 -14.3851
upperneck 15.2663 -8.28031 14.9746
head 8.79832 -3.36018 6.45661
lclavicle 1.83544e-14 1.68724e-15 0
lhumerus -48.8879 -9.25781 94.7255
lradius 26.2889 0 0
lwrist 6.35901 0 0
lhand -11.3287 -23.7354 0
lfingers 7.12502 0 0
lthumb 14.7033 5.71465 0
rclavicle 1.83544e-14 1.68724e-15 0
rhumerus -37.6068 10.6052 -81.9991
rradius 50.2756 0 0
rwrist -26.1843 0 0
rhand -32.5052 -27.9355 0
rfingers 7.12502 0 0
rthumb -5.73635 -57.8328 0
214
root 8.46918 16.5256 -7.29675 7.85646 0.220001 -3.91555
lfemur -42.5133 2.78198 -17.3319
ltibia 27.841 0 0
lfoot -13.5948 10.2692 0
ltoes -13.7967 0 0
rfemur 3.78096 4.15889 28.4141
rtibia 15.5173 0 0
rfoot -12.5749 4.64814 0
rtoes -10.4505 0 0
lowerback -6.16145 2.027 1.63553
upperback -1.14588 2.50829 3.09845
thorax 2.20179 1.262 2.47643
lowerneck -16.8195 -6.51475 -14.3724
upperneck 15.3314 -8.25375 14.9632
head 8.82407 -3.34584 6.45592
lclavicle 1.72422e-14 1.47391e-15 0
lhumerus -48.7959 -9.12561 94.5344
lradius 26.1026 0 0
lwrist 5.95721 0 0
lhand -11.212 -23.7011 0
lfingers 7.12502 0 0
lthumb 14.8156 5.73975 0
rclavicle 1.72422e-14 1.47391e-15 0
rhumerus -37.8775 10.5357 -82.1403
rradius 49.9899 0 0
rwrist -26.0592 0 0
rhand -32.4066 -27.7764 0
rfingers 7.12502 0 0
rthumb -5.64111 -57.6757 0
215
root 8.49604 16.5206 -7.13322 7.91422 0.0359271 -3.85144
lfemur -42.5394 2.98724 -17.5314
ltibia 28.2731 0 0
lfoot -13.4278 10.119 0
ltoes -13.3988 0 0
rfemur 3.97559 4.07438 28.1517
rtibia 15.9802 0 0
rfoot -11.904 4.65526 0
rtoes -10.5998 0 0
lowerback -6.16824 2.02781 1.56548
upperback -1.20418 2.51574 3.05749
thorax 2.14403 1.26609 2.47265
lowerneck -16.8696 -6.49465 -14.3597
upperneck 15.3964 -8.22718 14.9517
head 8.84983 -3.33149 6.45524
lclavicle 1.61299e-14 1.26058e-15 0
lhumerus -48.7038 -8.99341 94.3433
lradius 25.9164 0 0
lwrist 5.55541 0 0
lhand -11.0953 -23.6669 0
lfingers 7.12502 0 0
lthumb 14.928 5.76486 0
rclavicle 1.61299e-14 1.26058e-15 0
rhumerus -38.1481 10.4662 -82.2815
rradius 49.7042 0 0
rwrist -25.9341 0 0
rhand -32.3079 -27.6173 0
rfingers 7.12502 0 0
rthumb -5.54588 -57.5186 0
216
root 8.5229 16.5155 -6.96969 7.97197 -0.148147 -3.78733
lfemur -42.5655 3.19249 -17.7309
ltibia 28.7052 0 0
lfoot -13.2607 9.9689 0
ltoes -13.0009 0 0
rfemur 4.17022 3.98988 27.8893
rtibia 16.4431 0 0
rfoot -11.2332 4.66238 0
rtoes -10.749 0 0
lowerback -6.17502 2.02862 1.49544
upperback -1.26247 2.52318 3.01654
thorax 2.08627 1.27017 2.46887
lowerneck -16.9198 -6.47456 -14.347
upperneck 15.4614 -8.20062 14.9403
head 8.87558 -3.31715 6.45456
lclavicle 1.50176e-14 1.04725e-15 0
lhumerus -48.6117 -8.86121 94.1521
lradius 25.7302 0 0
lwrist 5.15362 0 0
lhand -10.9787 -23.6326 0
lfingers 7.12502 0 0
lthumb 15.0403 5.78997 0
rclavicle 1.50176e-14 1.04725e-15 0
rhumerus -38.4188 10.3968 -82.4227
rradius 49.4185 0 0
rwrist -25.8089 0 0
rhand -32.2093 -27.4582 0
rfingers 7.12502 0 0
rthumb -5.45064 -57.3615 0
217
root 8.54976 16.5104 -6.80616 8.02973 -0.33222 -3.72322
lfemur -42.5916 3.39774 -17.9303
ltibia 29.1372 0 0
lfoot -13.0936 9.81877 0
ltoes -12.603 0 0
rfemur 4.36484 3.90537 27.6268
rtibia 16.9061 0 0
rfoot -10.5624 4.66949 0
rtoes -10.8982 0 0
lowerback -6.1818 2.02944 1.42539
upperback -1.32077 2.53062 2.97558
thorax 2.02851 1.27425 2.4651
lowerneck -16.9699 -6.45446 -14.3343
upperneck 15.5264 -8.17405 14.9288
head 8.90133 -3.30281 6.45388
lclavicle 1.39054e-14 8.33923e-16 0
lhumerus -48.5197 -8.72901 93.961
lradius 25.5439 0 0
lwrist 4.75182 0 0
lhand -10.862 -23.5983 0
lfingers 7.12502 0 0
lthumb 15.1527 5.81507 0
rclavicle 1.39054e-14 8.33923e-16 0
rhumerus -38.6894 10.3273 -82.5639
rradius 49.1328 0 0
rwrist -25.6838 0 0
rhand -32.1107 -27.2991 0
rfingers 7.12502 0 0
rthumb -5.35541 -57.2043 0
